<?xml version="1.0" standalone="no"?>
<!DOCTYPE svg PUBLIC "-//W3C//DTD SVG 20010904//EN"
 "http://www.w3.org/TR/2001/REC-SVG-20010904/DTD/svg10.dtd">
<svg version="1.0" xmlns="http://www.w3.org/2000/svg"
 width="16.000000pt" height="16.000000pt" viewBox="0 0 16.000000 16.000000"
 preserveAspectRatio="xMidYMid meet">
<metadata>
Created by potrace 1.11, written by Peter Selinger 2001-2013
</metadata>
<g transform="translate(0.000000,16.000000) scale(0.004598,-0.004598)"
fill="#000000" stroke="none">
<path d="M1619 3246 c-2 -2 -34 -6 -70 -10 -37 -3 -73 -8 -80 -11 -8 -2 -25
-6 -39 -9 -292 -50 -605 -236 -833 -496 -53 -60 -167 -227 -167 -244 0 -8 113
-11 372 -10 403 1 450 -4 553 -52 64 -31 164 -126 191 -182 39 -82 42 -122 44
-513 1 -383 3 -409 38 -451 19 -22 60 -23 91 -2 22 16 83 106 251 370 l78 122
-79 121 c-44 67 -79 124 -79 127 0 3 -5 10 -11 17 -23 27 -219 335 -219 346 0
10 120 66 170 79 45 11 114 6 150 -13 15 -8 43 -29 61 -47 31 -32 209 -292
209 -307 0 -4 5 -12 12 -19 8 -8 14 -6 23 11 23 42 205 342 220 363 15 20 25
21 158 22 144 0 177 -6 177 -34 0 -22 -55 -112 -238 -394 l-159 -244 25 -41
c14 -22 66 -103 117 -180 50 -77 121 -185 157 -240 200 -308 251 -385 257
-385 17 0 124 219 161 328 56 168 75 286 75 477 0 181 -9 253 -51 408 -134
487 -522 885 -1004 1031 -87 26 -99 29 -235 50 -71 12 -317 20 -326 12z"/>
<path d="M338 2172 c-41 -4 -43 -7 -64 -105 -24 -117 -29 -167 -28 -317 0
-180 8 -246 46 -390 48 -180 160 -406 260 -526 174 -209 318 -325 532 -431 84
-42 242 -100 296 -109 14 -3 32 -7 40 -9 18 -5 57 -12 142 -25 62 -9 342 -7
384 3 12 3 39 8 60 11 167 27 378 109 544 214 57 36 209 153 210 162 0 3 -42
69 -93 147 -50 79 -126 195 -167 259 -41 65 -109 169 -151 233 -41 64 -84 131
-94 149 -11 17 -22 32 -26 32 -3 0 -65 -80 -138 -177 -73 -98 -153 -194 -177
-213 -199 -158 -435 -141 -585 42 -23 29 -46 57 -50 62 -4 5 -26 -7 -49 -27
-235 -201 -623 -159 -753 82 -53 98 -60 267 -17 385 29 77 109 162 192 203
126 63 211 78 426 78 l142 -1 0 66 c-1 105 -35 160 -123 198 -20 9 -123 11
-375 9 -191 -1 -363 -3 -384 -5z"/>
<path d="M929 1667 c-98 -28 -139 -80 -146 -187 -4 -54 0 -73 19 -110 32 -63
74 -84 162 -84 81 0 129 20 209 86 l47 40 0 128 c0 113 -2 128 -17 132 -41 10
-231 6 -274 -5z"/>
</g>
</svg>
