<?xml version="1.0" encoding="UTF-8"?>
<svg width="123px" height="123px" viewBox="0 0 123 123" version="1.1" xmlns="http://www.w3.org/2000/svg" xmlns:xlink="http://www.w3.org/1999/xlink">
    <!-- Generator: Sketch 41.2 (35397) - http://www.bohemiancoding.com/sketch -->
    <title>Artboard</title>
    <desc>Created with Sketch.</desc>
    <defs>
        <polygon id="path-1" points="91.282 91.9993 91.282 0.9573 0.2381 0.9573 0.2381 91.9993"></polygon>
        <path d="M91.2821,45.5216 C91.2821,70.6626 70.9011,91.0426 45.7611,91.0426 C20.6191,91.0426 0.2381,70.6626 0.2381,45.5216 C0.2381,20.3806 20.6191,0.0006 45.7611,0.0006 C70.9011,0.0006 91.2821,20.3806 91.2821,45.5216" id="path-3"></path>
        <polygon id="path-5" points="1.35525272e-20 0.415432047 1.35525272e-20 61.2791 93.2817 61.2791 93.2817 0.415432047 0 0.415432047"></polygon>
    </defs>
    <g id="Page-1" stroke="none" stroke-width="1" fill="none" fill-rule="evenodd">
        <g id="Artboard">
            <g id="Page-1" transform="translate(17.000000, 15.000000)">
                <g id="Group-3" transform="translate(0.000000, 0.043300)">
                    <mask id="mask-2" fill="white">
                        <use xlink:href="#path-1"></use>
                    </mask>
                    <g id="Clip-2"></g>
                </g>
                <g id="Group-6" transform="translate(0.000000, 1.000000)">
                    <mask id="mask-4" fill="white">
                        <use xlink:href="#path-3"></use>
                    </mask>
                    <use id="Mask" fill="#010202" xlink:href="#path-3"></use>
                    <g mask="url(#mask-4)">
                        <g transform="translate(-2.000000, 23.043300)">
                            <mask id="mask-6" fill="white">
                                <use xlink:href="#path-5"></use>
                            </mask>
                            <g id="Clip-5" stroke="none" fill="none"></g>
                            <path d="M80.2967,0.8391 C80.2967,0.8391 80.6437,0.8391 80.8207,1.5351 C80.9617,2.0881 80.4907,2.7651 80.4907,2.7651 L68.7377,21.0191 L93.2817,58.8621 C90.8367,60.4741 88.3917,61.2791 85.9467,61.2791 C83.5007,61.2791 81.5577,60.1951 80.1117,58.0281 L62.0687,30.0221 L54.7597,40.5691 L53.6277,41.3181 C52.6357,42.0401 51.6777,43.5251 49.5667,43.5251 C47.4537,43.5251 45.6767,43.2191 44.2327,42.6081 L43.8987,41.9411 L56.8177,21.8531 L44.8997,3.3481 C47.2337,1.6811 49.7047,0.8481 52.3177,0.8481 C53.6507,0.8481 54.7057,1.1121 55.4847,1.6401 C56.2627,2.1691 57.0397,3.0441 57.8187,4.2651 L63.5697,13.0171 L70.9787,0.8391 M24.6977,35.7731 C27.4757,35.7731 30.0867,34.5511 32.5327,32.1051 L32.5327,24.8531 C31.6437,24.7991 30.7827,24.7431 29.9497,24.6871 C29.1157,24.6321 28.3097,24.6041 27.5317,24.6041 C25.0857,24.6041 23.2257,25.0621 21.9467,25.9791 C20.6687,26.8961 20.0297,28.4101 20.0297,30.5221 C20.0297,32.1891 20.4467,33.4811 21.2797,34.3981 C22.1137,35.3151 23.2517,35.7731 24.6977,35.7731 M43.8752441,41.954991 C43.5892441,42.954991 46.1022949,43.7735945 47.2753906,43.7735945 C48.4484863,43.7735945 53.2617,36.8071 54.6427,40.5691 C53.4147,43.6511 41.1827,50.8511 33.3987,38.7741 C29.6787,42.2741 25.6187,44.0251 21.2157,44.0251 C18.9847,44.0251 17.0257,43.6771 15.3387,42.9831 C13.6507,42.2891 12.2507,41.3581 11.1357,40.1911 C10.0207,39.0241 9.1907,37.6901 8.6477,36.1901 C8.1037,34.6901 7.8327,33.1341 7.8327,31.5221 C7.8327,29.1881 8.2467,27.1461 9.0757,25.3951 C9.9047,23.6451 11.0777,22.1861 12.5947,21.0191 C14.1087,19.8521 15.8817,18.9641 17.9127,18.3521 C19.9417,17.7411 22.1587,17.4351 24.5617,17.4351 C27.6507,17.4351 30.0517,17.5181 31.7677,17.6851 L31.7677,15.4351 C31.7677,11.2121 29.6507,9.1001 25.4187,9.1001 C22.5587,9.1001 -0.0003,9.3981 -0.0003,9.3981 L0.0977,0.4941 C6.4397,0.3061 21.7857,0.5141 28.2507,0.5141 C32.5397,0.5141 36.0567,1.6811 38.8027,4.0151 C41.5477,6.3491 42.9197,9.8791 42.9197,14.6011 L42.9197,31.6891 C42.9197,34.6341 44.0447,39.6661 47.6527,36.8731 L46.8371582,37.389073" id="Fill-4" stroke="none" fill="#FEFEFE" fill-rule="evenodd" mask="url(#mask-6)"></path>
                            <path d="M54.8118286,40.5099837 L53.6040039,37.1730086 L47.5467529,36.7043196 L46.0203247,38.1440779 L44.012207,40.2809187 L41.8266602,43.7208602 L48.206665,44.4017073 C48.206665,44.4017073 50.4163989,43.8646016 51.2871704,43.3169295 C51.9659963,42.8899817 53.0848541,42.2312037 53.8319702,41.6723372 C54.0432257,41.5143114 54.8118286,40.5099837 54.8118286,40.5099837 Z" id="Path-2" stroke="none" fill="#FFFFFF" fill-rule="evenodd" mask="url(#mask-6)"></path>
                        </g>
                    </g>
                </g>
            </g>
        </g>
    </g>
</svg>