<?xml version="1.0" encoding="utf-8"?>
<!-- Generator: Adobe Illustrator 19.2.1, SVG Export Plug-In . SVG Version: 6.00 Build 0)  -->
<svg version="1.1" id="Layer_1" xmlns="http://www.w3.org/2000/svg" xmlns:xlink="http://www.w3.org/1999/xlink" x="0px" y="0px"
	 viewBox="0 0 450.2 107.8" style="enable-background:new 0 0 450.2 107.8;" xml:space="preserve">
<style type="text/css">
	.st0{fill:#327E93;}
	.st1{fill:#FFCD34;}
	.st2{fill:#FFFFFF;}
</style>
<g>
	<g>
		<path class="st0" d="M166.8,31.7c-4.8-4.8-10.6-7.2-17.4-7.2h-24.2v70h14v-21h10.2c6.7,0,12.5-2.4,17.4-7.1
			c4.8-4.8,7.2-10.6,7.2-17.3C174,42.3,171.6,36.5,166.8,31.7z M156.9,56.5c-2,2-4.4,3.1-7.3,3.1l-10.3,0V38.5h10.2
			c2.9,0,5.4,1,7.4,3.1c2,2.1,3.1,4.6,3.1,7.4C160,52,158.9,54.5,156.9,56.5z"/>
	</g>
	<g>
		<path class="st0" d="M115.4,31.7c-4.8-4.8-10.6-7.2-17.4-7.2H73.2v70h14v-21H98c6.7,0,12.5-2.4,17.4-7.1
			c4.8-4.8,7.2-10.6,7.2-17.3C122.6,42.3,120.2,36.5,115.4,31.7z M105.5,56.5c-2,2-4.7,3.1-7.6,3.1l-10.6,0V38.5H98
			c2.9,0,5.4,1,7.4,3.1c2,2.1,3.1,4.6,3.1,7.4C108.6,52,107.5,54.5,105.5,56.5z"/>
	</g>
	<path class="st0" d="M191.7,25.6V81h37.1l-7.2,13.7h-43.7V25.6H191.7z"/>
	<path class="st0" d="M340.5,25.6v13.7h-26.9v55.4h-13.9V39.3h-24.8l-6.8-13.7H340.5z"/>
	<path class="st0" d="M360.3,25.6v69.1h-13.8V25.6H360.3z"/>
	<path class="st0" d="M262.2,25.6l-7.1,14.2l15.5,30.7h-16.7l6.4-12.7l-7.1-14.1l0,0l0-0.1l-25.5,50.9h16.2l3.9-10h28.9l3.9,10h16.2
		L262.2,25.6z"/>
	<path class="st0" d="M36.9,25.6l-7.1,14.2l15.5,30.7H28.5L35,57.8l-7.1-14.1l0,0l0-0.1L2.3,94.5h16.2l3.9-10h28.9l3.9,10h16.2
		L36.9,25.6z"/>
	<g>
		<polygon class="st0" points="417,35.5 412.8,41.7 409.2,47.1 415,55 418.6,49.6 422.9,43.4 		"/>
		<polygon class="st0" points="425.8,36.5 427.6,33.8 422.8,27.2 421,29.9 		"/>
		<polygon class="st1" points="429,2.5 403.5,39.5 409.2,47.1 417,35.5 414.9,32.6 432.3,7 		"/>
		<polygon class="st0" points="434.6,9.3 420.9,29.8 426.7,37.7 440.4,17.1 		"/>
		<polygon class="st0" points="401.7,58.1 376.8,94.9 376.9,95 387.8,95 402.2,73.9 402.2,73.9 424.9,104.6 436.2,104.6 		"/>
		<polygon class="st0" points="391.2,43.7 385.6,36.2 382.3,31.7 376.9,39.6 380.2,44.1 385.9,51.8 390.7,58.4 396.1,50.4 		"/>
		<polygon class="st1" points="387.5,24 382.3,31.7 396.1,50.4 365.7,95 372.6,95 376.7,95 376.8,94.9 403.8,55 440.4,104.6 
			447.1,104.6 		"/>
	</g>
	<rect x="253.2" y="43.7" transform="matrix(0.6985 -0.7156 0.7156 0.6985 45.0562 194.341)" class="st2" width="0" height="0"/>
	<polygon class="st2" points="255.1,39.8 255.1,39.9 255,39.8 	"/>
</g>
</svg>
