<?xml version="1.0" encoding="UTF-8"?>
<svg width="51px" height="52px" viewBox="0 0 51 52" version="1.1" xmlns="http://www.w3.org/2000/svg" xmlns:xlink="http://www.w3.org/1999/xlink">
    <!-- Generator: Sketch 40.3 (33839) - http://www.bohemiancoding.com/sketch -->
    <title>i_rootusers_07656E</title>
    <desc>Created with Sketch.</desc>
    <defs></defs>
    <g id="Icons" stroke="none" stroke-width="1" fill="none" fill-rule="evenodd">
        <g id="Icons_DarkTeal_07656E" transform="translate(-293.000000, -1092.000000)">
            <g id="i_rootusers_07656E" transform="translate(293.000000, 1092.000000)">
                <g id="i_users" transform="translate(27.005988, 24.398710)"></g>
                <g id="i_07656e_rootuser">
                    <path d="M35.4038751,25.6440839 C35.4108433,25.7916783 35.4143679,25.9402035 35.4143679,26.089576 C35.4143679,31.0750924 31.4880467,35.1166519 26.644684,35.1166519 C24.5314866,35.1166519 22.5928614,34.3472821 21.0787519,33.0658219 C18.6572937,31.4409954 17.0673653,28.7038252 17.0673653,25.6010276 C17.0673653,20.6155112 21.1721557,16.5739516 26.2356713,16.5739516 C31.2991868,16.5739516 35.4039772,20.6155112 35.4039772,25.6010276 C35.4039772,25.6153875 35.4039432,25.6297397 35.4038751,25.6440839 Z" id="Combined-Shape" fill="#07656E"></path>
                    <g id="Group" transform="translate(25.593750, 26.000000) scale(-1, 1) translate(-25.593750, -26.000000) " fill="#07656E">
                        <path d="M32.248125,18.0869565 L34.864375,14.6391304 C35.546875,14.9217391 36.343125,15.0913043 37.139375,14.9782609 C39.69875,14.6956522 41.575625,12.3782609 41.29125,9.83478261 C41.006875,7.29130435 38.675,5.42608696 36.115625,5.70869565 C33.55625,5.99130435 31.679375,8.30869565 31.96375,10.8521739 C32.0775,11.7565217 32.41875,12.5478261 32.930625,13.226087 L30.314375,16.673913 C30.996875,17.0695652 31.6225,17.5782609 32.248125,18.0869565 L32.248125,18.0869565 Z" id="Shape"></path>
                        <path d="M45.670625,30.8043478 C44.419375,30.973913 43.281875,31.5956522 42.5425,32.5 L35.091875,29.1652174 C34.864375,29.9 34.523125,30.6347826 34.125,31.3130435 L41.6325,34.7043478 C41.575625,35.1 41.51875,35.5521739 41.575625,36.0043478 C41.86,38.5478261 44.191875,40.4130435 46.75125,40.1304348 C49.310625,39.8478261 51.1875,37.5304348 50.903125,34.9869565 C50.561875,32.3304348 48.23,30.5217391 45.670625,30.8043478 L45.670625,30.8043478 Z" id="Shape"></path>
                        <path d="M29.8025,46.2347826 C29.575,44.2565217 28.09625,42.673913 26.27625,42.2217391 L26.1625,36.4 L26.04875,36.4 C25.309375,36.4565217 24.57,36.4565217 23.830625,36.4 L23.8875,42.2782609 C21.72625,42.9 20.190625,44.9913043 20.475,47.3086957 C20.759375,49.8521739 23.09125,51.7173913 25.650625,51.4347826 C28.21,51.0956522 30.086875,48.8347826 29.8025,46.2347826 L29.8025,46.2347826 Z" id="Shape"></path>
                        <path d="M8.8725,30.126087 C7.905625,28.7130435 6.25625,27.8652174 4.493125,28.0913043 C1.93375,28.373913 0.056875,30.6913043 0.34125,33.2347826 C0.625625,35.7782609 2.9575,37.6434783 5.516875,37.3608696 C8.019375,37.0782609 9.89625,34.873913 9.66875,32.3304348 L15.185625,30.4086957 C14.844375,29.7304348 14.56,28.9956522 14.389375,28.2043478 L8.8725,30.126087 L8.8725,30.126087 Z" id="Shape"></path>
                        <path d="M16.095625,9.77826087 L19.3375,16.7304348 C20.02,16.3347826 20.7025,15.9956522 21.49875,15.7130435 L18.2,8.8173913 C19.394375,7.85652174 20.076875,6.33043478 19.90625,4.69130435 C19.621875,2.14782609 17.29,0.282608696 14.730625,0.565217391 C12.17125,0.847826087 10.294375,3.16521739 10.57875,5.70869565 C10.863125,8.25217391 13.195,10.1173913 15.754375,9.83478261 C15.868125,9.83478261 15.981875,9.83478261 16.095625,9.77826087 L16.095625,9.77826087 Z" id="Shape"></path>
                        <ellipse id="Oval" cx="24.854375" cy="25.8304348" rx="8.07625" ry="8.02608696"></ellipse>
                    </g>
                    <g id="i_users" transform="translate(22.066505, 20.391368)" fill="#FFFFFF">
                        <path d="M4.41426207,-1.94955163e-13 C5.70802136,-1.94955163e-13 6.74430915,1.0203344 6.74430915,2.29415582 C6.74430915,3.56798584 5.70802136,4.58831164 4.41426207,4.58831164 C3.12050279,4.58831164 2.08421383,3.56798584 2.08421383,2.29415582 C2.08421383,1.0203344 3.12050279,-1.94955163e-13 4.41426207,-1.94955163e-13 Z M1.37369204,8.23824198 C0.570135368,9.00213891 -6.21724894e-15,10.1788375 -6.21724894e-15,11.5887899 L-6.21724894e-15,14.5040561 C2.11884738e-05,14.8618317 0.1718941,15.1518573 0.383916614,15.151893 L8.44616474,15.151893 C8.65818726,15.1518573 8.83006017,14.8618317 8.83008136,14.5040561 L8.83008136,11.5887899 C8.83008136,10.1788375 8.25994599,9.00213891 7.45638932,8.23824198 C6.65277506,7.47437745 5.58782877,7.05393127 4.41504106,7.05393127 C3.24225259,7.05393127 2.17730629,7.47437745 1.37369204,8.23824198 Z" id="Shape"></path>
                    </g>
                </g>
            </g>
        </g>
    </g>
</svg>