<?xml version="1.0" encoding="UTF-8"?>
<svg width="50px" height="52px" viewBox="0 0 50 52" version="1.1" xmlns="http://www.w3.org/2000/svg" xmlns:xlink="http://www.w3.org/1999/xlink">
    <!-- Generator: Sketch 40.3 (33839) - http://www.bohemiancoding.com/sketch -->
    <title>I_environments_07656E</title>
    <desc>Created with Sketch.</desc>
    <defs></defs>
    <g id="Icons" stroke="none" stroke-width="1" fill="none" fill-rule="evenodd">
        <g id="Icons_DarkTeal_07656E" transform="translate(-295.000000, -903.000000)" fill="#07656E">
            <g id="I_environments_07656E" transform="translate(295.000000, 903.000000)">
                <ellipse id="Oval" cx="14.4879067" cy="23.919308" rx="4.59443373" ry="4.68097272"></ellipse>
                <path d="M46.887395,33.6015656 C47.8861945,32.583953 47.8861945,30.8540117 46.887395,29.734638 C45.8885954,28.7170254 44.0907563,28.7170254 43.0919568,29.734638 C42.0931573,30.7522505 42.0931573,32.4821918 43.0919568,33.6015656 C44.0907563,34.7209393 45.7887155,34.7209393 46.887395,33.6015656 L46.887395,33.6015656 Z" id="Shape"></path>
                <path d="M35.7445378,38.0973227 C36.7433373,37.0797101 36.7433373,35.3497688 35.7445378,34.2303951 C34.7457383,33.1110213 32.9478992,33.2127825 31.9490996,34.2303951 C30.9503001,35.2480076 30.9503001,36.9779489 31.9490996,38.0973227 C32.9478992,39.1149352 34.6458583,39.1149352 35.7445378,38.0973227 L35.7445378,38.0973227 Z" id="Shape"></path>
                <path d="M41.69988,18.1389432 C40.7010804,19.1565558 40.7010804,20.8864971 41.69988,22.0058708 C42.6986795,23.0234834 44.4965186,23.0234834 45.4953181,22.0058708 C46.4941176,20.9882583 46.4941176,19.258317 45.4953181,18.1389432 C44.4965186,17.0195695 42.7985594,17.0195695 41.69988,18.1389432 L41.69988,18.1389432 Z" id="Shape"></path>
                <path d="M29.0151261,24.4735812 C30.9128451,22.5401174 30.9128451,19.4872798 29.0151261,17.6555773 C27.2172869,15.8238748 24.1210084,15.8238748 22.3231693,17.6555773 C20.5253301,19.4872798 20.5253301,22.5401174 22.3231693,24.4735812 C24.1210084,26.407045 27.2172869,26.407045 29.0151261,24.4735812 L29.0151261,24.4735812 Z" id="Shape"></path>
                <ellipse id="Oval" cx="13.9530495" cy="41.691402" rx="2.09745888" ry="2.13696581"></ellipse>
                <path d="M22.1733493,44.9784736 C20.5752701,46.6066536 20.5752701,49.1506849 22.1733493,50.778865 C23.7714286,52.407045 26.2684274,52.407045 27.8665066,50.778865 C29.4645858,49.1506849 29.4645858,46.6066536 27.8665066,44.9784736 C26.2684274,43.3502935 23.7714286,43.3502935 22.1733493,44.9784736 L22.1733493,44.9784736 Z" id="Shape"></path>
                <path d="M24.4955582,8.67514677 C23.7963986,9.38747554 23.7963986,10.5068493 24.4955582,11.2191781 C25.1947179,11.9315068 26.2933974,11.9315068 26.992557,11.2191781 C27.6917167,10.5068493 27.6917167,9.38747554 26.992557,8.67514677 C26.2933974,7.962818 25.1947179,7.962818 24.4955582,8.67514677 L24.4955582,8.67514677 Z" id="Shape"></path>
                <path d="M46.5243697,11.5342466 C45.8252101,12.2465753 45.8252101,13.3659491 46.5243697,14.0782779 C47.2235294,14.7906067 48.3222089,14.7906067 49.0213685,14.0782779 C49.7205282,13.3659491 49.7205282,12.2465753 49.0213685,11.5342466 C48.3222089,10.8219178 47.2235294,10.8219178 46.5243697,11.5342466 L46.5243697,11.5342466 Z" id="Shape"></path>
                <path d="M36.7308523,7.91193738 C38.0292917,6.5890411 38.0292917,4.35029354 36.7308523,3.02739726 C35.432413,1.70450098 33.235054,1.70450098 31.9366146,3.02739726 C30.6381753,4.35029354 30.6381753,6.5890411 31.9366146,7.91193738 C33.235054,9.23483366 35.432413,9.23483366 36.7308523,7.91193738 L36.7308523,7.91193738 Z" id="Shape"></path>
                <path d="M6.99159664,22.3874755 C8.58967587,20.7592955 8.58967587,18.1135029 6.99159664,16.4853229 C5.39351741,14.8571429 2.79663866,14.8571429 1.19855942,16.4853229 C-0.399519808,18.1135029 -0.399519808,20.7592955 1.19855942,22.3874755 C2.79663866,24.0156556 5.39351741,24.0156556 6.99159664,22.3874755 L6.99159664,22.3874755 Z" id="Shape"></path>
                <ellipse id="Oval" cx="25.9185479" cy="31.4948023" rx="3.49576479" ry="3.56160968"></ellipse>
                <path d="M20.5503001,36.2015656 C21.8487395,34.8786693 21.8487395,32.8434442 20.5503001,31.5205479 C19.2518607,30.1976517 17.2542617,30.1976517 15.9558223,31.5205479 C14.657383,32.8434442 14.657383,34.8786693 15.9558223,36.2015656 C17.2542617,37.5244618 19.3517407,37.5244618 20.5503001,36.2015656 L20.5503001,36.2015656 Z" id="Shape"></path>
                <path d="M7.21632653,32.5381605 C5.91788715,31.2152642 3.72052821,31.2152642 2.42208884,32.5381605 C1.12364946,33.8610568 1.12364946,36.0998043 2.42208884,37.4227006 C3.72052821,38.7455969 5.91788715,38.7455969 7.21632653,37.4227006 C8.51476591,36.0998043 8.51476591,33.8610568 7.21632653,32.5381605 L7.21632653,32.5381605 Z" id="Shape"></path>
                <path d="M17.9284514,6.05479452 C19.3267707,4.73189824 19.3267707,2.49315068 17.9284514,1.06849315 C16.5301321,-0.356164384 14.3327731,-0.356164384 13.0343337,1.06849315 C11.6360144,2.39138943 11.6360144,4.63013699 13.0343337,6.05479452 C14.4326531,7.47945205 16.5301321,7.3776908 17.9284514,6.05479452 L17.9284514,6.05479452 Z" id="Shape"></path>
                <path d="M14.657383,11.8806262 C13.7584634,12.7964775 13.7584634,14.221135 14.657383,15.035225 C15.5563025,15.9510763 16.9546218,15.9510763 17.7536615,15.035225 C18.652581,14.1193738 18.652581,12.6947162 17.7536615,11.8806262 C16.9546218,10.964775 15.5563025,10.964775 14.657383,11.8806262 L14.657383,11.8806262 Z" id="Shape"></path>
                <path d="M38.2540216,18.9021526 C39.552461,17.5792564 39.552461,15.5440313 38.2540216,14.221135 C36.9555822,12.8982387 34.9579832,12.8982387 33.6595438,14.221135 C32.3611044,15.5440313 32.3611044,17.5792564 33.6595438,18.9021526 C34.9579832,20.2250489 36.9555822,20.2250489 38.2540216,18.9021526 L38.2540216,18.9021526 Z" id="Shape"></path>
                <path d="M41.52509,44.3424658 C42.8235294,43.0195695 42.8235294,40.9843444 41.52509,39.6614481 C40.2266507,38.3385519 38.2290516,38.3385519 36.9306122,39.6614481 C35.6321729,40.9843444 35.6321729,43.0195695 36.9306122,44.3424658 C38.2290516,45.665362 40.2266507,45.5636008 41.52509,44.3424658 L41.52509,44.3424658 Z" id="Shape"></path>
                <path d="M31.9366146,24.3972603 C30.6381753,25.7201566 30.6381753,27.9589041 31.9366146,29.2818004 C33.235054,30.6046967 35.432413,30.6046967 36.7308523,29.2818004 C38.0292917,27.9589041 38.0292917,25.7201566 36.7308523,24.3972603 C35.432413,23.074364 33.235054,23.074364 31.9366146,24.3972603 L31.9366146,24.3972603 Z" id="Shape"></path>
            </g>
        </g>
    </g>
</svg>